<?xml version="1.0" encoding="UTF-8"?>
<svg width="555px" height="555px" viewBox="0 0 555 555" version="1.1" xmlns="http://www.w3.org/2000/svg" xmlns:xlink="http://www.w3.org/1999/xlink">
    <!-- Generator: Sketch 42 (36781) - http://www.bohemiancoding.com/sketch -->
    <title>concrn white logo</title>
    <desc>Created with Sketch.</desc>
    <defs></defs>
    <g id="concrn-white-logo" fill="#FFFFFF">
        <path d="M99.408729,474.251119 C79.6652647,474.265869 79.4586814,474.260952 79.9456278,454.462308 C80.801473,419.648748 89.802604,387.062352 107.135929,356.762117 C109.487044,352.647027 111.882427,351.727647 116.432179,352.484784 C144.660316,357.180017 172.799917,356.408131 200.67883,349.834804 C204.854765,348.851509 205.597481,349.859386 204.702287,353.600823 C197.796501,382.460532 197.048866,411.47265 202.129832,440.710927 C202.415114,442.367779 200.334525,445.283249 198.588404,446.320625 C168.028826,464.428002 134.965656,473.813553 99.408729,474.251119" id="path-315" fill="#ffffff"></path>
        <path d="M99.0545861,79.9340935 C134.601675,80.0865043 167.669765,89.4376397 198.209667,107.490936 C200.309931,108.729887 202.326578,112.805645 201.933086,115.150804 C197.196425,143.400869 197.860443,171.449359 204.303876,199.315939 C205.425328,204.163583 204.594076,205.01905 199.813148,203.888261 C171.560417,197.216604 143.101104,196.833119 114.479475,201.439856 C112.723517,201.720095 109.703465,200.75155 108.891888,199.399519 C88.0909135,164.620375 78.4601953,127.014258 80.3883064,86.4238405 C80.6637508,80.7108966 82.9558421,79.5161932 87.8597369,79.8800123 C91.5733183,80.1553349 95.3213302,79.9340935 99.0545861,79.9340935" id="path-45" fill="#ffffff"></path>
        <path d="M455.531835,473.993004 C420.181492,473.934007 387.290474,464.666451 356.893212,446.765566 C354.792948,445.531531 352.751708,441.519687 353.125525,439.189278 C357.63101,410.92938 357.089958,382.88089 350.405512,355.038892 C349.239791,350.181415 349.323408,348.662224 355.107742,350.029004 C382.971898,356.607248 411.081988,356.838322 439.344555,352.678984 C441.612053,352.344664 445.448601,353.937602 446.555297,355.810779 C467.203793,390.904577 476.65744,428.800766 473.88824,469.528845 C473.780029,471.102117 471.271517,473.584937 469.653281,473.786513 C465.010075,474.371573 460.248821,473.993004 455.531835,473.993004" id="path-225" fill="#ffffff"></path>
        <path d="M474.621611,95.096994 C474.252712,132.98335 465.276174,166.774283 446.737779,197.826739 C445.581896,199.76383 441.892908,201.627174 439.723783,201.302686 C411.254632,196.990938 382.97239,197.389172 354.891813,203.928084 C350.351898,204.990043 349.496053,204.173908 350.543726,199.655667 C357.056019,171.562929 357.803654,143.307948 352.86041,114.856307 C352.491511,112.707807 354.045805,108.971286 355.85095,107.894578 C390.916011,86.9553114 428.966694,77.8352504 469.717716,80.2000748 C471.222823,80.2836549 473.569019,82.4813192 473.844464,84.00051 C474.611773,88.2090126 474.488807,92.5846753 474.621611,95.096994" id="path-135" fill="#ffffff"></path>
        <path d="M159.476276,347.892304 C93.2171314,346.407529 43.2879072,325.44368 3.02383176,282.281946 C-0.738936093,278.24552 -0.694668236,275.7627 3.01891311,271.691859 C70.2322762,197.939818 183.843272,184.896409 266.102788,241.568617 C269.334342,243.79578 270.583679,245.024898 266.919284,248.304187 C240.771737,271.711525 222.262854,300.207414 210.374475,333.206794 C209.208754,336.446751 205.175461,340.222603 201.904558,340.871578 C185.402485,344.126285 168.713502,346.427195 159.476276,347.892304" id="path-0" transform="translate(134.685791, 277.139555) rotate(-360.000000) translate(-134.685791, -277.139555) " fill="#ffffff"></path>
        <path d="M206.982081,409.153058 C207.24277,361.959814 218.378595,324.732266 240.517442,290.720092 C243.729321,285.788867 245.470524,284.318841 250.300639,289.584386 C273.870813,315.263135 302.46293,333.404928 335.427728,344.806233 C337.783762,345.617451 340.459508,348.626334 341.020234,351.064906 C359.071682,429.477765 340.198819,497.05963 281.401268,552.871454 C278.130365,555.97375 276.231766,555.383773 273.22647,552.620714 C229.238976,512.212206 207.852682,461.906834 206.982081,409.153058" id="path-270" transform="translate(277.288919, 420.611837) rotate(-360.000000) translate(-277.288919, -420.611837) " fill="#ffffff"></path>
        <path d="M402.800947,347.631731 C362.320451,347.027005 324.923949,336.289423 290.926235,314.007959 C286.125632,310.861415 284.89105,309.297976 289.937586,304.720738 C315.962167,281.126574 333.959511,252.212785 345.419967,219.070827 C346.251219,216.666671 349.113874,213.834781 351.519094,213.27922 C428.869796,195.388167 495.655237,214.105187 551.299933,271.259209 C555.426681,275.49721 555.352902,278.279935 551.368794,282.685097 C514.542856,323.432841 459.493316,347.626815 402.800947,347.631731" id="path-180" transform="translate(420.534294, 277.189813) rotate(-360.000000) translate(-420.534294, -277.189813) " fill="#ffffff"></path>
        <path d="M347.875849,143.906283 C347.72829,192.717046 336.582627,229.929845 314.497885,263.981351 C311.187633,269.079736 309.726794,270.269523 304.911435,264.940064 C281.52325,239.074489 252.896703,220.957278 220.015522,209.349481 C217.315183,208.395685 214.093466,205.224559 213.49831,202.554913 C196.273195,125.046685 214.791915,58.0547966 272.787726,2.7444531 C276.575088,-0.874072488 278.724538,-0.41192384 282.315153,2.90669677 C325.894399,43.1578774 346.877363,93.2223421 347.875849,143.906283" id="path-90" transform="translate(277.599889, 134.315594) rotate(-360.000000) translate(-277.599889, -134.315594) " fill="#ffffff"></path>
    </g>
</svg>
